<svg viewBox="0 0 211 42" xmlns="http://www.w3.org/2000/svg" data-logo="logo">
            <g transform="translate(0, 1) rotate(0)" id="logogram"><path fill="#422520" d="M7.10002 19.439C7.95902 19.625 8.25201 20.685 7.76001 21.102C5.02001 23.418 4.49701 26.21 4.49701 26.21C3.08001 24.793 1.96902 23.126 1.20502 21.313L7.16502 15.354L6.37001 17.954C6.18401 18.564 6.50302 19.214 7.10002 19.439ZM20.174 18.721L23.542 15.354L23.665 16.712C23.717 17.287 23.556 17.862 23.213 18.327L23.109 18.467C22.991 18.627 23.055 18.856 23.239 18.932L24.683 19.529C24.972 19.648 25.109 19.977 24.993 20.267C24.668 21.085 24.635 22.558 25.179 24.259C25.19 24.293 25.199 24.329 25.206 24.365C24.698 23.446 24.063 22.603 23.307 21.848L20.174 18.721Z"></path><path fill="#FFC212" d="M15.353 0C13.445 0 11.572 0.355998 9.82397 1.031H20.882C19.134 0.355998 17.261 0 15.353 0Z"></path><path fill="#F46520" d="M24.742 8.18201H28.927C29.104 8.51701 29.269 8.85801 29.42 9.20501H24.509C24.624 8.87901 24.703 8.53701 24.742 8.18201ZM15.586 8.18201H1.77902C1.60202 8.51701 1.43801 8.85801 1.28601 9.20501H15.819C15.704 8.87901 15.624 8.53701 15.586 8.18201Z"></path><path fill="#F14E23" d="M29.825 10.229H23.996C23.17 11.466 21.76 12.283 20.164 12.283C18.567 12.283 17.158 11.466 16.331 10.229H0.880997C0.303997 11.86 0 13.591 0 15.354C0 17.039 0.278007 18.696 0.807007 20.264L6.44099 14.63L7.16501 13.906L11.256 17.998L14.63 14.629L15.353 13.907L16.076 14.629L19.45 17.998L23.542 13.906L29.899 20.263C30.428 18.696 30.706 17.039 30.706 15.354C30.706 13.591 30.402 11.86 29.825 10.229Z"></path><path fill="#FCAB15" d="M23.022 2.05402H7.68398C7.15498 2.35902 6.64298 2.69602 6.15198 3.06402H24.554C24.063 2.69602 23.551 2.35902 23.022 2.05402Z"></path><path fill="#F77C1C" d="M24.504 6.13501H27.629C27.879 6.46701 28.115 6.80801 28.336 7.15801H24.74C24.7 6.80301 24.62 6.46101 24.504 6.13501ZM15.824 6.13501H3.077C2.827 6.46701 2.591 6.80801 2.37 7.15801H15.587C15.627 6.80301 15.708 6.46101 15.824 6.13501Z"></path><path fill="#F99419" d="M23.047 4.08801H25.782C25.927 4.22101 26.07 4.35701 26.209 4.49701C26.409 4.69701 26.602 4.90201 26.789 5.11101H23.987C23.727 4.72401 23.409 4.37901 23.047 4.08801ZM17.281 4.08801H4.92398C4.77898 4.22101 4.63698 4.35701 4.49698 4.49701C4.29698 4.69701 4.10399 4.90201 3.91699 5.11101H16.341C16.601 4.72401 16.919 4.37901 17.281 4.08801Z"></path><path fill="#FFC212" d="M20.164 11.259C22.142 11.259 23.746 9.65597 23.746 7.67697C23.746 5.69897 22.142 4.09497 20.164 4.09497C18.185 4.09497 16.581 5.69897 16.581 7.67697C16.581 9.65597 18.185 11.259 20.164 11.259Z"></path><path fill="#422520" d="M10.925 38.996H19.782C16.99 40.335 13.716 40.335 10.925 38.996ZM9.92302 28.775C9.85402 29.104 9.81402 29.442 9.80602 29.784H5.12701C5.12701 29.447 5.14401 29.11 5.17801 28.775H9.92302ZM24.208 34.902C24.005 35.254 23.778 35.595 23.529 35.926H7.17801C6.92901 35.596 6.70202 35.254 6.49802 34.902H12.93C13.676 35.263 14.5 35.454 15.353 35.454C16.207 35.454 17.03 35.263 17.776 34.902H24.208ZM22.645 36.949C22.624 36.97 22.605 36.99 22.584 37.011C22.232 37.363 21.86 37.683 21.472 37.973H9.23502C8.84702 37.683 8.47501 37.363 8.12201 37.011C8.10201 36.99 8.08201 36.97 8.06201 36.949H22.645ZM5.33302 27.751C5.71902 25.854 6.64801 24.044 8.12201 22.573L15.353 15.354L22.584 22.573C24.058 24.044 24.988 25.854 25.374 27.751H20.459C20.185 27.111 19.789 26.523 19.281 26.016L15.353 22.095L11.426 26.016C10.918 26.523 10.521 27.111 10.247 27.751H5.33302ZM25.529 28.775C25.562 29.11 25.579 29.447 25.579 29.784H20.901C20.893 29.442 20.852 29.104 20.783 28.775H25.529ZM5.33302 31.832C5.26402 31.493 5.21201 31.151 5.17801 30.808H9.87402C9.93102 31.159 10.02 31.501 10.142 31.832H5.33302ZM25.11 32.855C25.001 33.201 24.874 33.543 24.727 33.879H19.232C19.248 33.863 19.264 33.847 19.281 33.831C19.58 33.532 19.841 33.205 20.061 32.855H25.11ZM25.529 30.808C25.495 31.151 25.443 31.493 25.374 31.832H20.565C20.686 31.501 20.776 31.159 20.832 30.808H25.529ZM5.97902 33.879C5.83302 33.543 5.70502 33.201 5.59702 32.855H10.645C10.865 33.205 11.126 33.532 11.426 33.831C11.442 33.847 11.458 33.863 11.475 33.879H5.97902Z"></path></g>
            <g transform="translate(37, 1)" id="logotype"><path d="M19.06 33L8.31 33L8.31 7.54L18.41 7.54Q21.21 7.54 23.08 8.38Q24.95 9.23 25.88 10.70Q26.82 12.17 26.82 14.08L26.82 14.08Q26.82 15.59 26.22 16.70Q25.62 17.82 24.59 18.53Q23.55 19.24 22.24 19.55L22.24 19.55L22.24 19.81Q23.67 19.86 24.94 20.62Q26.22 21.38 27.01 22.74Q27.81 24.10 27.81 25.99L27.81 25.99Q27.81 27.99 26.82 29.58Q25.82 31.17 23.88 32.09Q21.94 33 19.06 33L19.06 33ZM13.52 21.81L13.52 28.71L18.03 28.71Q20.32 28.71 21.38 27.82Q22.44 26.93 22.44 25.50L22.44 25.50Q22.44 24.40 21.92 23.57Q21.40 22.75 20.44 22.28Q19.48 21.81 18.17 21.81L18.17 21.81L13.52 21.81ZM13.52 11.79L13.52 18.23L17.64 18.23Q18.75 18.23 19.64 17.83Q20.53 17.43 21.03 16.69Q21.53 15.94 21.53 14.92L21.53 14.92Q21.53 13.53 20.55 12.66Q19.57 11.79 17.74 11.79L17.74 11.79L13.52 11.79ZM37.61 33.38L37.61 33.38Q34.74 33.38 32.64 32.14Q30.54 30.90 29.40 28.68Q28.27 26.47 28.27 23.53L28.27 23.53Q28.27 20.56 29.40 18.35Q30.54 16.13 32.64 14.89Q34.74 13.65 37.61 13.65L37.61 13.65Q40.50 13.65 42.60 14.89Q44.69 16.13 45.83 18.35Q46.96 20.56 46.96 23.53L46.96 23.53Q46.96 26.47 45.83 28.68Q44.69 30.90 42.60 32.14Q40.50 33.38 37.61 33.38ZM37.61 29.34L37.61 29.34Q38.98 29.34 39.90 28.58Q40.83 27.82 41.29 26.50Q41.75 25.17 41.75 23.52L41.75 23.52Q41.75 21.82 41.29 20.51Q40.83 19.19 39.90 18.44Q38.98 17.69 37.61 17.69L37.61 17.69Q36.25 17.69 35.33 18.44Q34.42 19.19 33.96 20.51Q33.50 21.82 33.50 23.52L33.50 23.52Q33.50 25.17 33.96 26.50Q34.42 27.82 35.33 28.58Q36.25 29.34 37.61 29.34ZM55.25 33.32L55.25 33.32Q53.04 33.32 51.28 32.19Q49.51 31.05 48.48 28.86Q47.46 26.66 47.46 23.48L47.46 23.48Q47.46 20.22 48.52 18.03Q49.58 15.84 51.34 14.75Q53.10 13.65 55.21 13.65L55.21 13.65Q56.84 13.65 57.91 14.20Q58.99 14.75 59.66 15.55Q60.32 16.35 60.65 17.11L60.65 17.11L60.82 17.11L60.82 7.54L65.95 7.54L65.95 33L60.91 33L60.91 29.94L60.65 29.94Q60.31 30.71 59.63 31.49Q58.96 32.27 57.88 32.79Q56.80 33.32 55.25 33.32ZM56.82 29.21L56.82 29.21Q58.12 29.21 59.04 28.49Q59.97 27.77 60.44 26.48Q60.92 25.19 60.92 23.46L60.92 23.46Q60.92 21.72 60.45 20.45Q59.98 19.17 59.06 18.47Q58.14 17.76 56.82 17.76L56.82 17.76Q55.47 17.76 54.56 18.49Q53.64 19.23 53.18 20.51Q52.72 21.79 52.72 23.46L52.72 23.46Q52.72 25.14 53.19 26.44Q53.66 27.74 54.57 28.47Q55.49 29.21 56.82 29.21ZM67.91 39.77L67.91 39.77L69.09 35.91L69.72 36.06Q70.75 36.33 71.55 36.21Q72.35 36.09 72.84 35.56Q73.33 35.03 73.43 34.08L73.43 34.08L73.57 33.05L66.39 13.89L71.84 13.89L75.05 23.81Q75.63 25.69 76.00 27.57Q76.37 29.45 76.85 31.50L76.85 31.50L75.65 31.50Q76.11 29.45 76.57 27.56Q77.04 25.67 77.65 23.81L77.65 23.81L81.00 13.89L86.38 13.89L78.27 35.26Q77.69 36.79 76.78 37.92Q75.87 39.05 74.52 39.67Q73.17 40.28 71.26 40.28L71.26 40.28Q70.23 40.28 69.35 40.14Q68.46 39.99 67.91 39.77ZM102.31 33.38L102.31 33.38Q99.25 33.38 96.98 32.44Q94.72 31.50 93.46 29.65Q92.19 27.80 92.12 25.10L92.12 25.10L97.20 25.10Q97.30 26.39 97.97 27.25Q98.63 28.11 99.74 28.54Q100.86 28.97 102.26 28.97L102.26 28.97Q103.66 28.97 104.69 28.57Q105.73 28.16 106.31 27.43Q106.89 26.69 106.89 25.72L106.89 25.72Q106.89 24.85 106.37 24.26Q105.85 23.67 104.87 23.24Q103.90 22.81 102.50 22.49L102.50 22.49L99.69 21.79Q96.46 21.00 94.63 19.32Q92.81 17.64 92.81 14.87L92.81 14.87Q92.81 12.56 94.05 10.83Q95.28 9.11 97.45 8.15Q99.61 7.19 102.38 7.19L102.38 7.19Q105.20 7.19 107.30 8.16Q109.40 9.13 110.58 10.84Q111.76 12.56 111.79 14.80L111.79 14.80L106.75 14.80Q106.61 13.26 105.44 12.42Q104.27 11.59 102.33 11.59L102.33 11.59Q101.01 11.59 100.07 11.96Q99.13 12.34 98.63 13.00Q98.14 13.67 98.14 14.53L98.14 14.53Q98.14 15.47 98.71 16.09Q99.28 16.71 100.21 17.10Q101.15 17.48 102.22 17.74L102.22 17.74L104.53 18.30Q106.14 18.66 107.52 19.28Q108.90 19.89 109.95 20.79Q110.99 21.69 111.56 22.92Q112.13 24.15 112.13 25.75L112.13 25.75Q112.13 28.06 110.97 29.78Q109.81 31.50 107.61 32.44Q105.40 33.38 102.31 33.38ZM111.65 13.89L122.98 13.89L122.98 17.81L111.65 17.81L111.65 13.89ZM114.29 27.86L114.29 9.35L119.41 9.35L119.41 27.41Q119.41 28.32 119.81 28.75Q120.22 29.19 121.16 29.19L121.16 29.19Q121.45 29.19 121.98 29.11Q122.51 29.04 122.78 28.97L122.78 28.97L123.51 32.81Q122.66 33.07 121.81 33.17Q120.97 33.27 120.20 33.27L120.20 33.27Q117.33 33.27 115.81 31.87Q114.29 30.47 114.29 27.86L114.29 27.86ZM132.59 33.38L132.59 33.38Q129.72 33.38 127.61 32.14Q125.51 30.90 124.38 28.68Q123.24 26.47 123.24 23.53L123.24 23.53Q123.24 20.56 124.38 18.35Q125.51 16.13 127.61 14.89Q129.72 13.65 132.59 13.65L132.59 13.65Q135.48 13.65 137.57 14.89Q139.66 16.13 140.80 18.35Q141.94 20.56 141.94 23.53L141.94 23.53Q141.94 26.47 140.80 28.68Q139.66 30.90 137.57 32.14Q135.48 33.38 132.59 33.38ZM132.59 29.34L132.59 29.34Q133.95 29.34 134.88 28.58Q135.80 27.82 136.26 26.50Q136.72 25.17 136.72 23.52L136.72 23.52Q136.72 21.82 136.26 20.51Q135.80 19.19 134.88 18.44Q133.95 17.69 132.59 17.69L132.59 17.69Q131.22 17.69 130.31 18.44Q129.39 19.19 128.93 20.51Q128.47 21.82 128.47 23.52L128.47 23.52Q128.47 25.17 128.93 26.50Q129.39 27.82 130.31 28.58Q131.22 29.34 132.59 29.34ZM148.36 33L143.23 33L143.23 13.89L148.19 13.89L148.19 17.23L148.39 17.23Q148.92 15.45 150.16 14.54Q151.40 13.64 153.01 13.64L153.01 13.64Q153.40 13.64 153.85 13.68Q154.31 13.72 154.67 13.81L154.67 13.81L154.67 18.39Q154.32 18.27 153.67 18.20Q153.02 18.13 152.44 18.13L152.44 18.13Q151.28 18.13 150.34 18.64Q149.40 19.14 148.88 20.04Q148.36 20.93 148.36 22.13L148.36 22.13L148.36 33ZM163.84 33.38L163.84 33.38Q160.92 33.38 158.80 32.18Q156.68 30.98 155.54 28.78Q154.41 26.57 154.41 23.55L154.41 23.55Q154.41 20.59 155.53 18.37Q156.66 16.15 158.73 14.90Q160.80 13.65 163.58 13.65L163.58 13.65Q165.46 13.65 167.09 14.25Q168.71 14.85 169.94 16.06Q171.17 17.26 171.86 19.07Q172.56 20.88 172.56 23.34L172.56 23.34L172.56 24.78L156.51 24.78L156.51 21.57L170.04 21.57L167.65 22.42Q167.65 20.93 167.20 19.83Q166.75 18.73 165.85 18.12Q164.95 17.52 163.62 17.52L163.62 17.52Q162.30 17.52 161.37 18.13Q160.44 18.75 159.96 19.80Q159.48 20.85 159.48 22.20L159.48 22.20L159.48 24.47Q159.48 26.13 160.04 27.26Q160.59 28.39 161.59 28.95Q162.59 29.51 163.93 29.51L163.93 29.51Q164.83 29.51 165.57 29.26Q166.30 29.00 166.82 28.50Q167.34 27.99 167.62 27.26L167.62 27.26L172.27 28.13Q171.80 29.70 170.66 30.89Q169.51 32.08 167.80 32.73Q166.08 33.38 163.84 33.38Z" fill="#757575"></path></g>
            
          </svg>